<svg width="24" height="24" viewBox="0 0 24 24" fill="none" xmlns="http://www.w3.org/2000/svg">
<g clip-path="url(#clip0_55344_3326)">
<path d="M21.5 13C21.0833 13 20.7293 12.854 20.438 12.562C20.146 12.2707 20 11.9167 20 11.5C20 11.0833 20.146 10.7293 20.438 10.438C20.7293 10.146 21.0833 10 21.5 10C21.9167 10 22.2707 10.146 22.562 10.438C22.854 10.7293 23 11.0833 23 11.5C23 11.9167 22.854 12.2707 22.562 12.562C22.2707 12.854 21.9167 13 21.5 13ZM21.5 7C21.0833 7 20.7293 6.854 20.438 6.562C20.146 6.27067 20 5.91667 20 5.5C20 5.08333 20.146 4.72933 20.438 4.438C20.7293 4.146 21.0833 4 21.5 4C21.9167 4 22.2707 4.146 22.562 4.438C22.854 4.72933 23 5.08333 23 5.5C23 5.91667 22.854 6.27067 22.562 6.562C22.2707 6.854 21.9167 7 21.5 7ZM21.5 19C21.0833 19 20.7293 18.854 20.438 18.562C20.146 18.2707 20 17.9167 20 17.5C20 17.0833 20.146 16.7293 20.438 16.438C20.7293 16.146 21.0833 16 21.5 16C21.9167 16 22.2707 16.146 22.562 16.438C22.854 16.7293 23 17.0833 23 17.5C23 17.9167 22.854 18.2707 22.562 18.562C22.2707 18.854 21.9167 19 21.5 19ZM26 18.5C25.7167 18.5 25.4793 18.404 25.288 18.212C25.096 18.0207 25 17.7833 25 17.5C25 17.2167 25.096 16.9793 25.288 16.788C25.4793 16.596 25.7167 16.5 26 16.5H37C37.2833 16.5 37.5207 16.596 37.712 16.788C37.904 16.9793 38 17.2167 38 17.5C38 17.7833 37.904 18.0207 37.712 18.212C37.5207 18.404 37.2833 18.5 37 18.5H26ZM26 12.5C25.7167 12.5 25.4793 12.404 25.288 12.212C25.096 12.0207 25 11.7833 25 11.5C25 11.2167 25.096 10.979 25.288 10.787C25.4793 10.5957 25.7167 10.5 26 10.5H37C37.2833 10.5 37.5207 10.5957 37.712 10.787C37.904 10.979 38 11.2167 38 11.5C38 11.7833 37.904 12.0207 37.712 12.212C37.5207 12.404 37.2833 12.5 37 12.5H26ZM26 6.5C25.7167 6.5 25.4793 6.40433 25.288 6.213C25.096 6.021 25 5.78333 25 5.5C25 5.21667 25.096 4.979 25.288 4.787C25.4793 4.59567 25.7167 4.5 26 4.5H37C37.2833 4.5 37.5207 4.59567 37.712 4.787C37.904 4.979 38 5.21667 38 5.5C38 5.78333 37.904 6.021 37.712 6.213C37.5207 6.40433 37.2833 6.5 37 6.5H31.5H26Z" fill="#393939" stroke="#393939"/>
</g>
<defs>
<clipPath id="clip0_55344_3326">
<rect width="24" height="24" fill="white"/>
</clipPath>
</defs>
</svg>
