<svg width="21" height="33" viewBox="0 0 21 33" fill="none" xmlns="http://www.w3.org/2000/svg">
<path d="M10.5 32.9818C10.5 32.9879 10.512 33 10.512 33C10.512 33 21 16.691 21 11.3314C21 3.44369 15.6842 0.0121257 10.5 0C5.31585 0.0121257 0 3.44369 0 11.3314C0 16.691 10.494 33 10.494 33L10.5 32.9818Z" fill="white"/>
<path d="M10.611 30.8082C10.611 30.8137 10.6219 30.8247 10.6219 30.8247C10.6219 30.8247 20.2219 16.0849 20.2219 11.2411C20.2219 4.11233 15.3562 1.01096 10.611 1C5.86575 1.01096 1 4.11233 1 11.2411C1 16.0849 10.6055 30.8247 10.6055 30.8247L10.611 30.8082ZM7.28493 10.8356C7.28493 8.99452 8.77534 7.50411 10.6164 7.50411C12.4575 7.50411 13.9479 8.99452 13.9479 10.8356C13.9479 12.6767 12.4521 14.1671 10.611 14.1671C8.77534 14.1671 7.28493 12.6767 7.28493 10.8356Z" fill="#FEBE98"/>
</svg>
